<svg width="220" height="124" viewBox="0 0 220 124" fill="none" xmlns="http://www.w3.org/2000/svg">
<g clip-path="url(#clip0_4_91)">
<path d="M152 0L131.064 59H119.989L98.9722 0H112.148L125.567 42.9091L139.066 0H152Z" fill="black"/>
<path d="M72.021 10.4022V24.2176H95.8674V34.6198H72.021V48.5978H96.6757V59H60.2191V0H96.6757V10.4022H72.021Z" fill="black"/>
<path d="M24.0979 0C41.1541 0 54.0877 11.2149 54.0877 29.5C54.0877 47.7039 41.1541 59 24.0979 59H3V0H24.0979ZM23.6938 49.0041C35.334 49.0041 42.1242 41.4463 42.1242 29.5C42.1242 17.5537 35.334 9.99586 23.6938 9.99586H14.8019V49.0041H23.6938Z" fill="black"/>
<path d="M201.979 63.3245C212.759 63.3245 219 69.4867 219 81.6488V103.865H214.299V83.1893C214.299 72.2434 209.76 67.7029 201.574 67.7029C193.469 67.7029 187.876 72.2434 187.876 83.2704V103.865H183.175V64.1353H187.876V71.0272C188.93 68.5948 193.145 63.3245 201.979 63.3245Z" fill="white"/>
<path d="M174.388 101.432C174.388 114.811 166.608 123 154.126 123C142.535 123 137.186 116.189 135.322 113.027L139.455 110.432C141.319 113.676 145.21 118.622 154.126 118.622C163.041 118.622 169.687 113.189 169.687 101.432V95.2704C166.526 100.946 160.772 104.676 153.153 104.676C142.049 104.676 133.052 95.6758 133.052 84.0001C133.052 72.4056 142.049 63.3245 153.153 63.3245C160.772 63.3245 166.526 67.0542 169.687 72.7299V64.1353H174.388V101.432ZM153.801 100.297C162.798 100.297 170.012 93.2433 170.012 84.0001C170.012 74.838 162.798 67.7029 153.801 67.7029C144.724 67.7029 137.915 74.838 137.915 84.0001C137.915 93.2433 144.724 100.297 153.801 100.297Z" fill="white"/>
<path d="M125.829 55.3785C123.722 55.3785 122.182 53.9191 122.182 51.8921C122.182 49.865 123.722 48.4056 125.829 48.4056C127.937 48.4056 129.477 49.865 129.477 51.8921C129.477 53.9191 127.937 55.3785 125.829 55.3785ZM123.479 64.1353H128.18V103.865H123.479V64.1353Z" fill="white"/>
<path d="M103.595 104.676C96.1378 104.676 89.9779 100.946 86.979 94.9463L91.2747 92.7571C93.8684 97.3787 98.1641 100.298 103.838 100.298C109.349 100.298 113.564 97.5409 113.564 93.3247C113.564 88.7841 108.539 87.1625 104.729 86.3517L100.028 85.2977C94.0305 83.9193 88.1137 81.0004 88.1137 74.3518C88.1137 67.7842 94.0305 63.2437 102.217 63.2437C109.755 63.2437 115.104 67.0545 117.617 72.4869L113.483 74.5139C111.7 70.622 108.052 67.622 102.217 67.622C96.9483 67.622 92.9768 70.1356 92.9768 74.1085C92.9768 78.8923 98.8125 80.1085 100.839 80.595L105.459 81.649C112.429 83.2706 118.427 86.1896 118.427 92.9193C118.427 99.8111 112.105 104.676 103.595 104.676Z" fill="white"/>
<path d="M66.7649 104.676C55.4987 104.676 47.2314 95.8379 47.2314 84.0001C47.2314 72.1623 55.4987 63.3245 66.7649 63.3245C78.0311 63.3245 86.2984 72.1623 86.2984 84.0001V86.1893H52.1756C52.4998 93.4055 57.9303 100.297 66.7649 100.297C73.9785 100.297 77.3016 96.5676 79.49 93.5677L83.3805 96.4055C81.1921 99.4055 76.0858 104.676 66.7649 104.676ZM81.4353 81.8109C81.03 74.1893 75.8427 67.7029 66.7649 67.7029C57.7681 67.7029 52.5808 74.1893 52.1756 81.8109H81.4353Z" fill="white"/>
<path d="M42.3364 45V103.865H37.6354V95.2701C34.4744 100.946 28.7197 104.675 21.1008 104.675C9.99674 104.675 1 95.6755 1 83.9999C1 72.4053 9.99674 63.3243 21.1008 63.3243C28.7197 63.3243 34.4744 67.054 37.6354 72.7296V45H42.3364ZM21.7492 100.297C30.746 100.297 37.9596 93.2431 37.9596 83.9999C37.9596 74.8377 30.746 67.7026 21.7492 67.7026C12.6715 67.7026 5.8631 74.8377 5.8631 83.9999C5.8631 93.2431 12.6715 100.297 21.7492 100.297Z" fill="white"/>
<path fill-rule="evenodd" clip-rule="evenodd" d="M220 104.957H212.919V83.1932C212.919 77.8789 211.809 74.3605 209.921 72.1773C208.065 70.0311 205.276 68.9696 201.411 68.9696C197.584 68.9696 194.52 70.0341 192.403 72.2342C190.279 74.4416 188.932 77.9748 188.932 83.2739V104.957H181.851V63.043H188.932V67.3107C191.332 64.7922 195.485 62.2361 201.815 62.2361C207.422 62.2361 212.023 63.8388 215.212 67.186C218.393 70.5233 220 75.4178 220 81.6601V104.957ZM188.932 69.1337C188.365 69.8667 187.972 70.5488 187.737 71.0898V64.2311H183.045V103.769H187.737V83.2739C187.737 72.3001 193.32 67.7815 201.411 67.7815C209.582 67.7815 214.113 72.3001 214.113 83.1932V103.769H218.806V81.6601C218.806 69.5567 212.576 63.4242 201.815 63.4242C194.967 63.4242 190.9 66.5868 188.932 69.1337ZM133.659 112.495L139.82 108.64L140.439 109.714C141.322 111.246 142.654 113.124 144.776 114.621C146.883 116.108 149.836 117.267 154.047 117.267C158.255 117.267 161.802 115.993 164.298 113.458C166.795 110.922 168.387 106.977 168.387 101.348V99.0185C164.833 103.186 159.574 105.764 153.076 105.764C141.308 105.764 131.817 96.2511 131.817 84.0001C131.817 71.8329 141.305 62.2361 153.076 62.2361C159.574 62.2361 164.833 64.8142 168.387 68.9818V63.043H175.468V101.348C175.468 108.232 173.457 113.915 169.703 117.887C165.94 121.867 160.547 124 154.047 124C141.904 124 136.234 116.849 134.247 113.49L133.659 112.495ZM169.581 72.7843C169.217 72.1327 168.819 71.5069 168.387 70.9096C165.076 66.329 159.804 63.4242 153.076 63.4242C141.992 63.4242 133.011 72.4615 133.011 84.0001C133.011 95.6194 141.992 104.576 153.076 104.576C159.804 104.576 165.076 101.671 168.387 97.0906C168.819 96.4933 169.217 95.8675 169.581 95.216V101.348C169.581 113.048 162.947 118.455 154.047 118.455C146.038 118.455 142.092 114.469 140.025 111.319C139.796 110.968 139.589 110.628 139.403 110.305L139.403 110.305L135.276 112.887C135.441 113.165 135.632 113.47 135.852 113.797C135.873 113.828 135.894 113.86 135.915 113.891C138.227 117.28 143.594 122.812 154.047 122.812C166.507 122.812 174.274 114.662 174.274 101.348V64.2311H169.581V72.7843ZM122.26 63.043H129.341V104.957H122.26V63.043ZM85.4233 94.3706L91.7884 91.1367L92.35 92.1343C94.7519 96.4011 98.6645 99.0309 103.849 99.0309C106.415 99.0309 108.587 98.3891 110.082 97.3492C111.553 96.3259 112.363 94.9321 112.363 93.2797C112.363 91.5585 111.447 90.3567 109.944 89.4273C108.399 88.4725 106.366 87.9005 104.49 87.5024L104.483 87.501L99.7812 86.4499L99.7781 86.4492C96.714 85.7472 93.5448 84.6284 91.1202 82.7489C88.6478 80.8323 86.9585 78.1238 86.9585 74.3983C86.9585 66.9523 93.6875 62.1557 102.231 62.1557C110.208 62.1557 115.979 66.2062 118.687 72.0445L119.176 73.0974L112.901 76.1648L112.391 75.0537C110.793 71.5764 107.559 68.8892 102.231 68.8892C99.7748 68.8892 97.7214 69.4755 96.32 70.4272C94.9468 71.3599 94.2013 72.6293 94.2013 74.1562C94.2013 75.9404 95.2514 77.1073 96.7589 77.9524C98.1989 78.7597 99.8596 79.1537 100.928 79.407C100.997 79.4235 101.064 79.4393 101.128 79.4546C101.13 79.4552 101.132 79.4557 101.134 79.4562L105.735 80.5027L105.738 80.5033C109.268 81.3221 112.699 82.4972 115.265 84.4114C117.889 86.3683 119.606 89.1025 119.606 92.8762C119.606 100.64 112.479 105.764 103.606 105.764C95.7467 105.764 89.1629 101.83 85.9513 95.4238L85.4233 94.3706ZM100.855 80.6114C100.787 80.595 100.714 80.5777 100.637 80.5595C98.4441 80.0411 93.0071 78.7555 93.0071 74.1562C93.0071 70.2024 96.9716 67.701 102.231 67.701C107.723 67.701 111.273 70.3548 113.153 73.9041C113.267 74.1195 113.375 74.3381 113.477 74.5597L117.603 72.5424C117.603 72.5424 117.603 72.5425 117.603 72.5424C117.491 72.3016 117.374 72.0638 117.251 71.8295C117.19 71.713 117.127 71.5973 117.063 71.4825C114.372 66.647 109.253 63.3438 102.231 63.3438C94.0589 63.3438 88.1527 67.8624 88.1527 74.3983C88.1527 81.0149 94.0589 83.9197 100.046 85.2914L104.739 86.3404C108.541 87.1473 113.558 88.7611 113.558 93.2797C113.558 97.4756 109.35 100.219 103.849 100.219C98.1852 100.219 93.8971 97.3142 91.3081 92.7149L87.0201 94.8934L87.02 94.8935C87.0695 94.9923 87.1199 95.0905 87.1711 95.188C87.3048 95.4424 87.4442 95.6925 87.5894 95.9383C90.7522 101.294 96.6068 104.576 103.606 104.576C112.101 104.576 118.412 99.7349 118.412 92.8762C118.412 86.179 112.425 83.2742 105.467 81.6604L100.855 80.6114ZM87.5348 87.3669H53.5824C54.4075 93.5354 59.2683 99.0306 66.8419 99.0306C70.2188 99.0306 72.6199 98.1654 74.4212 96.9949C76.2413 95.8124 77.5146 94.2769 78.5789 92.8223L79.2831 91.8598L85.0949 96.0862L84.3934 97.0449C82.084 100.201 76.6709 105.764 66.8419 105.764C54.8678 105.764 46.149 96.3667 46.149 84.0001C46.149 71.6335 54.8678 62.2361 66.8419 62.2361C78.8161 62.2361 87.5348 71.6335 87.5348 84.0001V87.3669ZM52.3789 87.3669C52.33 86.9725 52.2965 86.5761 52.2786 86.1787H86.3406V84.0001C86.3406 72.2194 78.088 63.4242 66.8419 63.4242C55.5958 63.4242 47.3432 72.2194 47.3432 84.0001C47.3432 95.7808 55.5958 104.576 66.8419 104.576C75.2304 104.576 80.1992 100.313 82.697 97.2858C82.9502 96.9788 83.1781 96.6846 83.3815 96.4088C83.3971 96.3877 83.4126 96.3666 83.4279 96.3456L79.5444 93.5215C79.5138 93.5633 79.4829 93.6053 79.4519 93.6474C77.2661 96.6103 73.9418 100.219 66.8419 100.219C58.511 100.219 53.2126 94.0982 52.3789 87.3669ZM43.6512 44V104.957H36.5701V99.0182C33.0158 103.186 27.7577 105.764 21.2592 105.764C9.49104 105.764 0 96.2509 0 83.9999C0 71.8326 9.48801 62.2359 21.2592 62.2359C27.7577 62.2359 33.0158 64.814 36.5701 68.9815V44H43.6512ZM37.7643 72.784C37.4003 72.1324 37.0019 71.5067 36.5701 70.9094C33.2589 66.3288 27.9872 63.424 21.2592 63.424C10.1749 63.424 1.19421 72.4612 1.19421 83.9999C1.19421 95.6192 10.1749 104.576 21.2592 104.576C27.9872 104.576 33.2589 101.671 36.5701 97.0904C37.0019 96.4931 37.4003 95.8673 37.7643 95.2157V103.769H42.4569V45.1881H37.7643V72.784ZM153.723 99.0306C162.046 99.0306 168.711 92.5414 168.711 84.0001C168.711 75.5356 162.042 68.9696 153.723 68.9696C145.359 68.9696 139.06 75.4999 139.06 84.0001C139.06 92.5771 145.355 99.0306 153.723 99.0306ZM125.801 56.7047C123.09 56.7047 120.966 54.7708 120.966 52.0469C120.966 49.3231 123.09 47.3892 125.801 47.3892C128.512 47.3892 130.636 49.323 130.636 52.0469C130.636 54.7708 128.512 56.7047 125.801 56.7047ZM76.5499 72.781C74.311 70.4661 71.0684 68.9696 66.8419 68.9696C62.659 68.9696 59.4366 70.4639 57.2064 72.7792C55.2293 74.8318 53.9834 77.5818 53.5856 80.6334H80.1792C79.7813 77.5821 78.5346 74.833 76.5499 72.781ZM81.3827 80.6334C80.5255 73.5747 75.4263 67.7815 66.8419 67.7815C58.3341 67.7815 53.2391 73.5747 52.3821 80.6334C52.3345 81.0258 52.2999 81.4221 52.2786 81.8215H81.4861C81.4648 81.4221 81.4303 81.0258 81.3827 80.6334ZM21.9065 99.0304C30.2288 99.0304 36.8937 92.5412 36.8937 83.9999C36.8937 75.5354 30.2249 68.9694 21.9065 68.9694C13.5424 68.9694 7.24286 75.4996 7.24286 83.9999C7.24286 92.5768 13.5386 99.0304 21.9065 99.0304ZM38.0879 83.9999C38.0879 93.1985 30.8872 100.219 21.9065 100.219C12.8449 100.219 6.04865 93.1985 6.04865 83.9999C6.04865 74.8819 12.8449 67.7812 21.9065 67.7812C30.8872 67.7812 38.0879 74.8819 38.0879 83.9999ZM125.801 55.5166C123.697 55.5166 122.16 54.0642 122.16 52.0469C122.16 50.0297 123.697 48.5773 125.801 48.5773C127.905 48.5773 129.442 50.0297 129.442 52.0469C129.442 54.0642 127.905 55.5166 125.801 55.5166ZM128.147 64.2311V103.769H123.455V64.2311H128.147ZM169.905 84.0001C169.905 93.1987 162.704 100.219 153.723 100.219C144.662 100.219 137.865 93.1987 137.865 84.0001C137.865 74.8822 144.662 67.7815 153.723 67.7815C162.704 67.7815 169.905 74.8822 169.905 84.0001Z" fill="black"/>
</g>
<defs>
<clipPath id="clip0_4_91">
<rect width="220" height="124" fill="white"/>
</clipPath>
</defs>
</svg>
